<?xml version="1.0" encoding="utf-8"?>
<!-- Generator: Adobe Illustrator 23.0.3, SVG Export Plug-In . SVG Version: 6.00 Build 0)  -->
<svg version="1.1" id="Layer_1" xmlns="http://www.w3.org/2000/svg" xmlns:xlink="http://www.w3.org/1999/xlink" x="0px" y="0px"
	 viewBox="0 0 1511.9 1019.1" style="enable-background:new 0 0 1511.9 1019.1;" xml:space="preserve">
<style type="text/css">
	.st0{fill:#0000FF;}
</style>
<g>
	<path class="st0" d="M364.7,428.1c0-7.9,2-15.7,5.8-22.6c3.6-7.1,9.3-12.9,16.3-16.7c7.2-3.9,15.3-5.9,23.6-5.8
		c13.4,0,24.4,4.3,32.9,13c8.6,8.7,12.8,19.7,12.9,33c0,13.4-4.3,24.5-13,33.3s-19.5,13.2-32.6,13.2c-8.1,0-16-1.9-23.2-5.5
		c-7.2-3.5-13-9.2-16.8-16.2C366.6,446.9,364.7,438.3,364.7,428.1z M388.7,429.4c0,8.8,2.1,15.5,6.3,20.2c7.4,8.5,20.3,9.4,28.9,2
		c0.7-0.6,1.3-1.3,2-2c4.1-4.7,6.2-11.5,6.2-20.4c0-8.7-2.1-15.3-6.2-20c-7.4-8.5-20.3-9.4-28.9-2c-0.7,0.6-1.3,1.3-2,2
		C390.8,413.9,388.7,420.6,388.7,429.4L388.7,429.4z"/>
	<path class="st0" d="M532.8,473.7v-13.3c-3.2,4.7-7.6,8.6-12.8,11.2c-5.1,2.7-10.8,4.1-16.6,4.1c-5.6,0.1-11.1-1.3-16-3.9
		c-4.5-2.4-8.2-6.3-10.3-11c-2.1-4.7-3.2-11.3-3.2-19.6v-56h23.4v40.7c0,12.5,0.4,20.1,1.3,22.9c0.8,2.7,2.4,5,4.7,6.7
		c2.6,1.7,5.6,2.6,8.7,2.5c3.8,0.1,7.6-1.1,10.8-3.3c3-2,5.3-4.8,6.5-8.2c1.2-3.3,1.8-11.2,1.8-23.9v-37.4h23.4v88.6h-21.7V473.7z"
		/>
	<g>
		<path class="st0" d="M618,448.4l23.5-3.6c1,4.6,3,8,6.1,10.4s7.3,3.5,12.8,3.5c6.1,0,10.6-1.1,13.7-3.3c2-1.4,3.2-3.8,3.1-6.3
			c0.1-1.6-0.5-3.2-1.7-4.4c-1.2-1.1-3.8-2.1-7.8-3.1c-18.9-4.2-30.9-8-35.9-11.4c-6.8-4.3-10.8-11.9-10.5-19.9
			c0-7.7,3-14.1,9.1-19.4c6.1-5.2,15.5-7.8,28.2-7.8c12.1,0,21.1,2,27,5.9s9.9,9.8,12.2,17.5l-22.1,4.1c-0.8-3.2-2.7-6-5.4-7.9
			c-2.7-1.8-6.4-2.8-11.3-2.8c-6.2,0-10.6,0.9-13.3,2.6c-1.7,1-2.7,2.8-2.7,4.8c0,1.7,0.9,3.3,2.3,4.3c2.1,1.6,9.4,3.8,21.9,6.6
			c12.5,2.8,21.2,6.3,26.2,10.4c4.9,4.2,7.3,10,7.3,17.4c0,8.1-3.4,15.1-10.2,20.9s-16.8,8.8-30.1,8.8c-12.1,0-21.6-2.4-28.6-7.3
			C624.9,463.6,620,456.5,618,448.4z"/>
		<path class="st0" d="M761.8,385.1v18.7h-16v35.7c0,7.2,0.2,11.4,0.5,12.6s1,2.3,2.1,3c1.2,0.8,2.6,1.2,4,1.2
			c2.2,0,5.3-0.8,9.4-2.3l2,18.2c-5.9,2.4-12.2,3.6-18.5,3.5c-3.9,0.1-7.8-0.7-11.4-2.1c-3-1.1-5.6-3-7.5-5.5
			c-1.8-2.8-2.9-5.9-3.3-9.1c-0.5-2.7-0.8-8.2-0.8-16.5v-38.7h-10.8v-18.7h10.8v-17.6l23.5-13.7v31.3H761.8z"/>
		<path class="st0" d="M778.1,373.1v-21.7h23.4v21.7H778.1z M778.1,473.7v-88.6h23.4v88.6H778.1z"/>
		<path class="st0" d="M825.6,473.7V351.4H849v122.3H825.6z"/>
		<path class="st0" d="M873,473.7V351.4h23.4v122.3H873z"/>
		<path class="st0" d="M0.1,351.4h45.1c10.2,0,17.9,0.8,23.3,2.3c7,2,13.4,5.9,18.4,11.3c5.3,5.7,9.3,12.4,11.7,19.8
			c2.7,7.8,4,17.4,4,28.9c0,10.1-1.3,18.7-3.8,26c-3.1,8.9-7.4,16.1-13.1,21.6c-4.3,4.2-10.1,7.4-17.3,9.8
			c-5.5,1.7-12.7,2.6-21.8,2.6H0.1V351.4z M24.8,372.1v81h18.4c6.9,0,11.9-0.4,14.9-1.2c3.7-0.8,7.1-2.6,10-5.1
			c2.7-2.4,4.8-6.3,6.5-11.8c1.6-5.5,2.5-12.9,2.5-22.4c0-9.4-0.8-16.7-2.5-21.8c-1.3-4.5-3.7-8.5-7-11.8c-3.2-2.9-7.2-4.9-11.4-5.8
			c-3.5-0.8-10.2-1.2-20.3-1.2L24.8,372.1z"/>
		<path class="st0" d="M117.9,428.1c0-7.9,2-15.7,5.8-22.6c3.6-7.1,9.3-12.9,16.3-16.7c7.2-3.9,15.3-5.9,23.6-5.8
			c13.4,0,24.4,4.3,33,13s12.9,19.7,12.8,33c0,13.4-4.3,24.5-13,33.3s-19.6,13.2-32.6,13.2c-8.1,0-16-1.9-23.2-5.5
			c-7.2-3.5-13.1-9.1-16.8-16.2C119.8,446.9,117.9,438.3,117.9,428.1z M141.9,429.4c0,8.8,2.1,15.5,6.3,20.2
			c7.4,8.5,20.4,9.4,28.9,2c0.7-0.6,1.3-1.3,2-2c4.1-4.7,6.2-11.5,6.2-20.4c0-8.7-2.1-15.3-6.2-20c-7.4-8.5-20.4-9.4-28.9-2
			c-0.7,0.6-1.3,1.3-2,2C144,413.9,141.9,420.6,141.9,429.4L141.9,429.4z"/>
		<path class="st0" d="M264,385.1h25l21.2,62.9l20.7-62.9h24.3l-31.3,85.2l-5.6,15.4c-1.5,4.1-3.5,8.1-5.9,11.8
			c-1.7,2.6-3.9,4.8-6.4,6.6c-2.7,1.8-5.7,3.2-8.9,4c-3.9,1-8,1.5-12,1.4c-4.5,0-8.9-0.5-13.3-1.4l-2.1-18.4c3.3,0.7,6.6,1,9.9,1.1
			c5.4,0,9.5-1.6,12.1-4.8c2.8-3.6,4.9-7.8,6-12.2L264,385.1z"/>
		<path class="st0" d="M950.8,473.7V351.4h23.4v44c7.2-8.2,15.8-12.3,25.7-12.3c10.8,0,19.7,3.9,26.8,11.7
			c7.1,7.8,10.6,19,10.6,33.6c0,15.1-3.6,26.8-10.8,34.9c-7.2,8.2-15.9,12.3-26.2,12.3c-5.2,0-10.4-1.3-15-3.8
			c-5.1-2.7-9.4-6.5-12.7-11.2v13L950.8,473.7z M974.1,427.5c0,9.2,1.4,16,4.3,20.4c4.1,6.2,9.4,9.3,16.2,9.3
			c5.2,0,9.6-2.2,13.2-6.6c3.6-4.4,5.5-11.4,5.5-20.9c0-10.1-1.8-17.4-5.5-21.9c-3.4-4.3-8.6-6.8-14.1-6.7c-5.4-0.1-10.6,2.3-14,6.5
			C975.9,411.9,974.1,418.6,974.1,427.5z"/>
		<path class="st0" d="M1107.4,445.5l23.4,3.9c-3,8.6-7.7,15.1-14.2,19.6s-14.6,6.7-24.3,6.7c-15.4,0-26.8-5-34.2-15.1
			c-5.8-8.1-8.8-18.2-8.8-30.5c0-14.7,3.8-26.2,11.5-34.5s17.4-12.5,29.1-12.5c13.2,0,23.6,4.3,31.2,13s11.3,22,10.9,40h-58.7
			c0.2,6.9,2.1,12.4,5.7,16.2c3.4,3.8,8.4,5.9,13.5,5.8c3.3,0.1,6.6-0.9,9.3-3C1104.3,453.1,1106.2,449.9,1107.4,445.5z
			 M1108.8,421.8c-0.2-6.8-1.9-11.9-5.3-15.5c-3.1-3.4-7.5-5.4-12.2-5.3c-4.8-0.1-9.5,1.9-12.7,5.6c-3.3,3.7-5,8.8-4.9,15.2
			L1108.8,421.8L1108.8,421.8z"/>
		<path class="st0" d="M1151.1,473.7V351.4h23.4v122.3H1151.1z"/>
		<path class="st0" d="M1198.6,373.1v-21.7h23.4v21.7H1198.6z M1198.6,473.7v-88.6h23.4v88.6H1198.6z"/>
		<path class="st0" d="M1297.3,445.5l23.3,3.9c-3,8.6-7.7,15.1-14.2,19.6s-14.6,6.7-24.3,6.7c-15.4,0-26.8-5-34.2-15.1
			c-5.8-8.1-8.8-18.2-8.8-30.5c0-14.7,3.8-26.2,11.5-34.5s17.4-12.5,29.1-12.5c13.2,0,23.6,4.3,31.2,13s11.3,22,10.9,40h-58.7
			c0.2,6.9,2.1,12.4,5.7,16.2c3.5,3.8,8.4,5.9,13.5,5.8c3.3,0.1,6.6-0.9,9.3-3C1294.2,453.1,1296,449.9,1297.3,445.5z M1298.7,421.8
			c-0.2-6.8-1.9-11.9-5.3-15.5c-3.1-3.4-7.5-5.4-12.2-5.3c-4.8-0.1-9.5,1.9-12.7,5.6c-3.3,3.7-5,8.8-4.9,15.2L1298.7,421.8
			L1298.7,421.8z"/>
		<path class="st0" d="M1365.4,473.7l-35.7-88.6h24.6l16.7,45.2l4.8,15.1c1.3-3.8,2.1-6.4,2.4-7.6c0.8-2.5,1.6-5,2.5-7.5l16.8-45.2
			h24.1l-35.2,88.6H1365.4z"/>
		<path class="st0" d="M1487.3,445.5l23.3,3.9c-3,8.6-7.7,15.1-14.2,19.6s-14.6,6.7-24.3,6.7c-15.4,0-26.8-5-34.2-15.1
			c-5.8-8.1-8.8-18.2-8.8-30.5c0-14.7,3.8-26.2,11.5-34.5s17.4-12.5,29.1-12.5c13.2,0,23.6,4.3,31.2,13s11.3,22,10.9,40h-58.7
			c0.2,6.9,2.1,12.4,5.7,16.2c3.4,3.8,8.4,5.9,13.5,5.8c3.3,0.1,6.6-0.9,9.3-3C1484.2,453.1,1486,449.9,1487.3,445.5z M1488.6,421.8
			c-0.2-6.8-1.9-11.9-5.3-15.5c-6.4-6.8-17.1-7.1-23.9-0.7c-0.3,0.3-0.6,0.6-0.9,1c-3.3,3.7-5,8.8-4.9,15.2H1488.6z"/>
		<path class="st0" d="M0,536v-21.6h23.4V536H0z M0,636.6V548h23.4v88.6H0z"/>
		<path class="st0" d="M128,636.6h-23.4v-45.2c0-9.6-0.5-15.7-1.5-18.6c-0.9-2.6-2.6-4.9-4.9-6.5c-2.4-1.6-5.2-2.4-8.1-2.3
			c-3.9-0.1-7.7,1.1-10.9,3.3c-3.1,2.1-5.5,5.2-6.6,8.8c-1.2,3.7-1.8,10.4-1.8,20.3v40.1H47.3V548h21.8v13c7.7-10,17.5-15,29.2-15
			c4.9-0.1,9.7,0.9,14.2,2.8c3.8,1.5,7.1,4,9.7,7.1c2.2,2.9,3.8,6.3,4.6,9.8c0.9,3.7,1.3,8.9,1.3,15.8L128,636.6z"/>
		<path class="st0" d="M198.2,636.6V514.4h23.4v44c7.2-8.2,15.8-12.3,25.7-12.3c10.8,0,19.7,3.9,26.8,11.7
			c7.1,7.8,10.6,19,10.6,33.7c0,15.1-3.6,26.8-10.8,34.9c-7.2,8.2-15.9,12.3-26.2,12.3c-5.2,0-10.4-1.3-15-3.8
			c-5.1-2.7-9.4-6.5-12.7-11.2v13L198.2,636.6z M221.5,590.4c0,9.2,1.4,16,4.3,20.3c4.1,6.2,9.5,9.3,16.2,9.3
			c5.2,0,9.6-2.2,13.2-6.6c3.6-4.4,5.5-11.4,5.5-20.9c0-10.1-1.8-17.4-5.5-21.9c-3.4-4.3-8.6-6.8-14.1-6.7c-5.4-0.1-10.6,2.3-14,6.5
			C223.4,574.9,221.5,581.5,221.5,590.4L221.5,590.4z"/>
		<path class="st0" d="M326,636.6h-23.4V548h21.8v12.6c3.7-5.9,7.1-9.9,10-11.8c3-1.9,6.6-2.9,10.1-2.8c5.5,0,10.8,1.6,15.5,4.4
			l-7.3,20.4c-4-2.6-7.6-3.8-11-3.8c-3-0.1-6,0.9-8.3,2.7s-4.1,5.1-5.4,9.8s-2,14.6-2,29.7L326,636.6L326,636.6z"/>
		<path class="st0" d="M387.5,575.1l-21.3-3.8c2.4-8.6,6.5-14.9,12.3-19s14.5-6.1,26-6.2c10.5,0,18.2,1.2,23.4,3.7s8.7,5.6,10.8,9.4
			c2.1,3.8,3.1,10.8,3.1,21l-0.3,27.3c0,7.8,0.4,13.5,1.1,17.2c0.9,4.1,2.3,8.1,4.2,11.8h-23.2c-0.6-1.6-1.4-3.9-2.3-6.9
			c-0.4-1.4-0.7-2.3-0.8-2.8c-3.7,3.7-8.1,6.7-12.9,8.8c-4.6,2-9.6,3-14.6,2.9c-9.1,0-16.3-2.5-21.6-7.4c-5.2-4.8-8.1-11.7-7.9-18.8
			c-0.1-4.7,1.2-9.3,3.6-13.4c2.4-3.9,5.9-7,10-9c4.3-2.1,10.5-3.9,18.6-5.5c11-2.1,18.6-4,22.8-5.8v-2.3c0-4.5-1.1-7.7-3.3-9.6
			c-2.2-1.9-6.4-2.9-12.5-2.9c-4.2,0-7.4,0.8-9.8,2.5S389,571,387.5,575.1z M418.9,594.1c-4.7,1.4-9.4,2.6-14.3,3.6
			c-6.5,1.4-10.8,2.8-12.8,4.1c-3.1,2.2-4.6,4.9-4.6,8.3c0,3.2,1.3,6.3,3.7,8.5c2.5,2.4,5.9,3.7,9.3,3.6c4.4,0,8.6-1.5,12.1-4.2
			c2.7-1.9,4.6-4.6,5.6-7.8c0.6-2,0.9-5.8,0.9-11.4L418.9,594.1z"/>
		<path class="st0" d="M545.6,636.6h-23.4v-45.2c0-9.6-0.5-15.7-1.5-18.6c-0.9-2.6-2.6-4.9-4.9-6.5c-2.4-1.6-5.2-2.4-8.1-2.3
			c-3.9,0-7.7,1.1-10.9,3.3c-3.1,2.1-5.5,5.2-6.6,8.8c-1.2,3.7-1.8,10.4-1.8,20.3v40.1H465V548h21.8v13c7.7-10,17.5-15,29.2-15
			c4.9-0.1,9.7,0.9,14.2,2.8c3.8,1.5,7.1,4,9.7,7.1c2.2,2.9,3.8,6.3,4.6,9.8c0.9,3.7,1.3,8.9,1.3,15.8v55.1L545.6,636.6L545.6,636.6
			z"/>
		<path class="st0" d="M650.6,636.6h-21.8v-13c-3.3,4.8-7.7,8.6-12.8,11.3c-4.6,2.4-9.7,3.7-14.9,3.7c-10.2,0-18.9-4.1-26.2-12.3
			S564,606.7,564,592c0-15,3.5-26.4,10.6-34.2s16-11.7,26.8-11.7c9.9,0,18.5,4.1,25.7,12.3v-44h23.4L650.6,636.6L650.6,636.6z
			 M588,590.4c0,9.5,1.3,16.3,3.9,20.5c3.8,6.1,9.1,9.2,15.8,9.2c5.4,0,10-2.3,13.8-6.9c3.8-4.6,5.7-11.4,5.7-20.6
			c0-10.2-1.8-17.5-5.5-22c-3.4-4.3-8.6-6.8-14.1-6.7c-5.4-0.1-10.6,2.4-14,6.6C589.9,575,588,581.6,588,590.4z"/>
		<path class="st0" d="M665.4,611.3l23.6-3.6c1,4.6,3,8,6.1,10.4s7.3,3.5,12.8,3.5c6.1,0,10.6-1.1,13.7-3.3c2-1.5,3.1-3.8,3.1-6.3
			c0.1-1.6-0.5-3.2-1.7-4.4c-1.2-1.1-3.8-2.1-7.8-3.1c-18.9-4.2-30.9-8-35.9-11.4c-6.8-4.3-10.8-11.9-10.5-19.9
			c0-7.7,3-14.1,9.1-19.3s15.5-7.8,28.2-7.8c12.1,0,21.1,2,27,5.9s9.9,9.8,12.2,17.5l-22.1,4.1c-0.8-3.2-2.7-6-5.4-7.9
			c-2.7-1.8-6.4-2.8-11.3-2.8c-6.2,0-10.6,0.9-13.3,2.6c-1.7,1-2.7,2.8-2.7,4.8c0,1.7,0.9,3.3,2.3,4.3c2.1,1.5,9.4,3.7,21.9,6.6
			s21.2,6.3,26.1,10.4c4.9,4.2,7.3,10,7.3,17.4c0,8.1-3.4,15.1-10.2,20.9c-6.8,5.8-16.8,8.8-30.1,8.8c-12.1,0-21.6-2.4-28.7-7.3
			C672.3,626.6,667.4,619.5,665.4,611.3z"/>
		<path class="st0" d="M819.1,605.1h-21.3c0-3.1-0.1-4.9-0.1-5.6c0-6.9,1.1-12.6,3.4-17c2.3-4.4,6.8-9.4,13.7-15
			c6.8-5.6,10.9-9.2,12.3-10.9c2-2.6,3.1-5.7,3.1-9c0-4.5-2-8.8-5.5-11.7c-3.6-3.2-8.5-4.9-14.7-4.9c-5.4-0.2-10.8,1.6-15,5
			c-4,3.4-6.8,8.6-8.3,15.5l-21.5-2.7c0.6-9.9,4.9-18.3,12.8-25.3s18.2-10.5,31-10.4c13.4,0,24.1,3.5,32.1,10.5s11.9,15.2,11.9,24.6
			c0,5.2-1.5,10.3-4.4,14.7c-2.9,4.6-9.1,10.9-18.7,18.8c-4.9,4.1-8,7.4-9.2,9.9S819,598.6,819.1,605.1z M797.8,636.6v-23.4h23.4
			v23.4H797.8z"/>
	</g>
</g>
</svg>
