<svg xmlns="http://www.w3.org/2000/svg" viewBox="0 0 46.63 46.63"><defs><style>.cls-1{fill:blue;}</style></defs><title>Asset 1</title><g id="Layer_2" data-name="Layer 2"><g id="Layer_1-2" data-name="Layer 1"><path class="cls-1" d="M23.32,15.54a7.78,7.78,0,1,0,7.77,7.78A7.78,7.78,0,0,0,23.32,15.54ZM46.49,32.93a17.25,17.25,0,0,1-1.08,5.66,11.93,11.93,0,0,1-6.82,6.82,17.25,17.25,0,0,1-5.66,1.08c-2.49.11-3.28.14-9.61.14s-7.13,0-9.62-.14A17.25,17.25,0,0,1,8,45.41a11.93,11.93,0,0,1-6.82-6.82A17.25,17.25,0,0,1,.14,32.93C0,30.44,0,29.65,0,23.32s0-7.13.14-9.62A17.25,17.25,0,0,1,1.22,8,11.93,11.93,0,0,1,8,1.22,17.25,17.25,0,0,1,13.7.14C16.19,0,17,0,23.32,0s7.12,0,9.61.14a17.25,17.25,0,0,1,5.66,1.08A11.93,11.93,0,0,1,45.41,8a17.25,17.25,0,0,1,1.08,5.66c.11,2.49.14,3.28.14,9.62S46.6,30.44,46.49,32.93Zm-5-23.37a7.68,7.68,0,0,0-4.42-4.42,12.88,12.88,0,0,0-4.33-.8c-2.46-.11-3.2-.14-9.42-.14s-7,0-9.43.14a12.88,12.88,0,0,0-4.33.8A7.68,7.68,0,0,0,5.14,9.56a12.88,12.88,0,0,0-.8,4.33c-.12,2.46-.14,3.2-.14,9.43s0,7,.14,9.42a12.88,12.88,0,0,0,.8,4.33,7.22,7.22,0,0,0,1.74,2.68,7.3,7.3,0,0,0,2.68,1.74,12.88,12.88,0,0,0,4.33.8c2.46.12,3.2.14,9.42.14s7,0,9.43-.14a12.88,12.88,0,0,0,4.33-.8,7.7,7.7,0,0,0,4.42-4.42,12.88,12.88,0,0,0,.8-4.33c.12-2.46.14-3.2.14-9.42s0-7-.14-9.43A12.88,12.88,0,0,0,41.49,9.56ZM23.32,35.29a12,12,0,1,1,12-12A12,12,0,0,1,23.32,35.29ZM35.76,13.67a2.8,2.8,0,1,1,2.8-2.8A2.81,2.81,0,0,1,35.76,13.67Z"/></g></g></svg>