<svg xmlns="http://www.w3.org/2000/svg" viewBox="0 0 45.96 43.93"><defs><style>.cls-1{fill:blue;}</style></defs><title>Asset 2</title><g id="Layer_2" data-name="Layer 2"><g id="Layer_1-2" data-name="Layer 1"><path class="cls-1" d="M10.44,43.93H.58V14.29h9.86ZM5.51,10.24H5.44A5.1,5.1,0,0,1,0,5.12C0,2.21,2.2,0,5.57,0S11,2.21,11.08,5.12,9,10.24,5.51,10.24ZM46,43.93H36.11V28.08c0-4-1.42-6.71-5-6.71A5.42,5.42,0,0,0,26.06,25a6.71,6.71,0,0,0-.32,2.4V43.93H15.89s.13-26.86,0-29.64h9.85v4.2a9.78,9.78,0,0,1,8.88-4.9C41.1,13.59,46,17.83,46,26.94Z"/></g></g></svg>