<svg xmlns="http://www.w3.org/2000/svg" viewBox="0 0 46.73 46.73"><title>Layer 7 (2)</title><g id="Layer_2" data-name="Layer 2"><g id="Layer_18" data-name="Layer 18"><g id="Layer_7" data-name="Layer 7"><path d="M23.36,0A23.37,23.37,0,1,0,46.73,23.36,23.36,23.36,0,0,0,23.36,0ZM17.69,33.37H12.88V18.88h4.81ZM15.28,16.91h0a2.51,2.51,0,1,1,.06-5,2.51,2.51,0,1,1,0,5ZM35.05,33.37H30.24V25.62c0-1.95-.7-3.28-2.44-3.28a2.64,2.64,0,0,0-2.47,1.76,3.28,3.28,0,0,0-.16,1.18v8.09H20.35s.07-13.13,0-14.49h4.82v2.05a4.79,4.79,0,0,1,4.34-2.39c3.17,0,5.54,2.07,5.54,6.52Z"/></g></g></g></svg>