<svg xmlns="http://www.w3.org/2000/svg" viewBox="0 0 46.73 46.73"><title>Layer 7 (3)</title><g id="Layer_2" data-name="Layer 2"><g id="Layer_18" data-name="Layer 18"><g id="Layer_7" data-name="Layer 7"><path d="M27.56,23.36a4.2,4.2,0,1,1-4.2-4.19,4.2,4.2,0,0,1,4.2,4.19Z"/><path d="M33.17,16a4.14,4.14,0,0,0-2.39-2.39,7.13,7.13,0,0,0-2.33-.43c-1.33-.06-1.73-.07-5.09-.07s-3.75,0-5.08.07a7.13,7.13,0,0,0-2.33.43A4.14,4.14,0,0,0,13.56,16a7.13,7.13,0,0,0-.43,2.33c-.06,1.33-.07,1.73-.07,5.09s0,3.75.07,5.08a7.13,7.13,0,0,0,.43,2.33A4.14,4.14,0,0,0,16,33.17a7.13,7.13,0,0,0,2.33.43c1.33.06,1.73.07,5.08.07s3.76,0,5.09-.07a7.13,7.13,0,0,0,2.33-.43,4.2,4.2,0,0,0,2.39-2.39,7.13,7.13,0,0,0,.43-2.33c.06-1.33.07-1.73.07-5.08s0-3.76-.07-5.09A7.13,7.13,0,0,0,33.17,16ZM23.36,29.82a6.46,6.46,0,1,1,6.46-6.46,6.46,6.46,0,0,1-6.46,6.46Zm6.72-11.66a1.51,1.51,0,1,1,1.51-1.51,1.5,1.5,0,0,1-1.51,1.51Z"/><path d="M23.36,0A23.37,23.37,0,1,0,46.73,23.36,23.36,23.36,0,0,0,23.36,0Zm12.5,28.55a9.21,9.21,0,0,1-.58,3.05,6.41,6.41,0,0,1-3.68,3.68,9.21,9.21,0,0,1-3.05.58c-1.34.06-1.77.08-5.18.08s-3.85,0-5.19-.08a9.21,9.21,0,0,1-3-.58,6.41,6.41,0,0,1-3.68-3.68,9.21,9.21,0,0,1-.58-3.05c-.06-1.34-.08-1.77-.08-5.19s0-3.84.08-5.18a9.21,9.21,0,0,1,.58-3,6.41,6.41,0,0,1,3.68-3.68,9.21,9.21,0,0,1,3-.58c1.34-.06,1.77-.08,5.18-.08s3.85,0,5.19.08a9.21,9.21,0,0,1,3.05.58,6.41,6.41,0,0,1,3.68,3.68,9.21,9.21,0,0,1,.58,3c.06,1.34.08,1.77.08,5.18s0,3.85-.08,5.19Z"/></g></g></g></svg>