<?xml version="1.0" encoding="utf-8"?>
<!-- Generator: Adobe Illustrator 23.0.3, SVG Export Plug-In . SVG Version: 6.00 Build 0)  -->
<svg version="1.1" id="Layer_1" xmlns="http://www.w3.org/2000/svg" xmlns:xlink="http://www.w3.org/1999/xlink" x="0px" y="0px"
	 viewBox="0 0 404.1 21.1" style="enable-background:new 0 0 404.1 21.1;" xml:space="preserve">
<style type="text/css">
	.st0{fill:none;stroke:#FFFFFF;stroke-width:0.37;stroke-linecap:round;stroke-linejoin:round;}
</style>
<path class="st0" d="M146.2,9.6c1.3-0.4,2.6-0.9,3.8-1.6"/>
<path class="st0" d="M129.7,16.4l1-0.4"/>
<path class="st0" d="M138.7,12.3c0.2-0.6,0.5-1.2,1-1.6"/>
<path class="st0" d="M143.7,10.4c0.4-0.3,0.6-0.8,0.8-1.2"/>
<path class="st0" d="M135.6,13.5c0-0.2,0-0.4,0.2-0.6"/>
<path class="st0" d="M115.5,12.9c-0.6,0-1.2-0.2-1.7-0.6"/>
<path class="st0" d="M112.1,10.1l-0.3-0.3"/>
<path class="st0" d="M108.7,11.8l0.3-0.1"/>
<path class="st0" d="M128.3,6.5l-0.7,3.9C128,9.1,128.3,7.8,128.3,6.5z"/>
<path d="M0,12.9l1.9-0.3c0.1,0.7,0.4,1.3,0.9,1.8c0.6,0.5,1.3,0.7,2.1,0.6c0.7,0.1,1.4-0.1,2-0.6c0.4-0.3,0.7-0.8,0.7-1.3
	c0-0.4-0.2-0.8-0.6-1.1c-0.6-0.3-1.3-0.5-2-0.7c-1-0.2-2-0.6-3-1c-0.5-0.2-1-0.6-1.3-1.1s-0.4-1-0.4-1.6c0-0.5,0.1-1,0.4-1.5
	c0.2-0.4,0.6-0.8,1-1.1S2.5,4.5,3,4.4c0.6-0.2,1.1-0.2,1.7-0.2c0.8,0,1.6,0.1,2.4,0.4c0.6,0.2,1.1,0.6,1.5,1.1s0.6,1.2,0.7,1.8
	L7.4,7.8C7.3,7.2,7.1,6.7,6.6,6.4C6.1,6,5.5,5.8,4.8,5.9C4.1,5.8,3.4,6,2.9,6.4C2.5,6.6,2.3,7,2.3,7.5c0,0.3,0.1,0.5,0.2,0.7
	C2.7,8.4,3,8.6,3.3,8.7C3.5,8.8,4.1,8.9,5,9.2c1,0.2,2,0.5,2.9,0.9c1.1,0.4,1.8,1.5,1.8,2.7c0,0.7-0.2,1.3-0.6,1.9
	c-0.4,0.6-1,1.1-1.7,1.4c-0.8,0.3-1.6,0.5-2.4,0.5c-1.2,0.1-2.4-0.3-3.4-1C0.7,14.9,0.1,13.9,0,12.9"/>
<path d="M19.5,12.1l1.9,0.3c-0.1,1.2-0.7,2.3-1.6,3.2c-0.9,0.8-2,1.2-3.2,1.1c-1.4,0.1-2.8-0.5-3.8-1.6c-1-1.3-1.6-2.9-1.4-4.5
	c0-1.1,0.2-2.3,0.6-3.3c0.4-0.9,1-1.7,1.9-2.1c0.9-0.5,1.8-0.7,2.8-0.7c1.1,0,2.2,0.3,3.1,1c0.8,0.7,1.4,1.7,1.5,2.7l-1.9,0.3
	c-0.1-0.7-0.5-1.3-1-1.8c-0.5-0.4-1.1-0.6-1.7-0.6c-0.9,0-1.8,0.4-2.4,1.1c-0.7,1-1,2.2-0.9,3.4c-0.1,1.2,0.2,2.4,0.9,3.4
	c0.6,0.7,1.4,1.1,2.3,1.1c0.7,0,1.4-0.2,1.9-0.7C19.1,13.8,19.4,13,19.5,12.1"/>
<path d="M23.2,0.3h2v2.3h-2V0.3z M23.2,4.7h2v11.7h-2V4.7z"/>
<rect x="27.4" y="9.6" width="6.1" height="2"/>
<path d="M36.1,16.4V6.3h-1.7V4.8h1.7V3.6c0-0.6,0-1.2,0.2-1.8c0.2-0.5,0.5-1,1-1.3c0.6-0.4,1.3-0.5,2-0.5c0.6,0,1.2,0.1,1.8,0.2
	l-0.3,1.7c-0.4-0.1-0.8-0.1-1.2-0.1c-0.5,0-0.9,0.1-1.3,0.4c-0.3,0.4-0.4,0.9-0.4,1.4v1.1h2.3v1.5H38v10.2L36.1,16.4z"/>
<path d="M41.8,0.3h2v2.3h-2V0.3z M41.8,4.7h2v11.7h-2V4.7z"/>
<path d="M52.8,2.9c0.7,0,1.3,0.2,1.9,0.5c0.6,0.3,1.1,0.8,1.4,1.4c0.7,1.2,0.7,2.7,0,3.8c-0.3,0.6-0.8,1.1-1.4,1.4
	c-1.2,0.7-2.6,0.7-3.8,0c-0.6-0.3-1.1-0.8-1.4-1.4C49.2,8,49,7.4,49,6.7s0.2-1.3,0.5-1.9c0.3-0.6,0.8-1.1,1.4-1.4
	C51.5,3.1,52.1,2.9,52.8,2.9 M52.8,3.5c-0.6,0-1.1,0.1-1.6,0.4c-0.5,0.3-0.9,0.7-1.2,1.2c-0.6,1-0.6,2.2,0,3.2
	c0.3,0.5,0.7,0.9,1.2,1.2c1,0.6,2.2,0.6,3.2,0c0.5-0.3,0.9-0.7,1.2-1.2c0.6-1,0.6-2.2,0-3.2c-0.3-0.5-0.7-0.9-1.2-1.2
	C53.9,3.7,53.3,3.5,52.8,3.5 M51.1,8.9V4.7h1.4c0.4,0,0.7,0,1.1,0.1C53.8,4.9,54,5,54.1,5.2s0.2,0.4,0.2,0.6c0,0.3-0.1,0.6-0.3,0.8
	S53.5,7,53.1,7c0.1,0.1,0.2,0.1,0.4,0.2c0.2,0.2,0.4,0.5,0.6,0.8l0.5,0.8h-0.8l-0.4-0.7c-0.2-0.4-0.4-0.7-0.7-1
	c-0.2-0.1-0.3-0.2-0.5-0.2h-0.4v1.8L51.1,8.9z M51.7,6.5h0.8c0.3,0,0.5,0,0.8-0.2c0.1-0.1,0.2-0.3,0.2-0.5c0-0.1,0-0.2-0.1-0.3
	s-0.2-0.2-0.3-0.2c-0.2-0.1-0.5-0.1-0.7-0.1h-0.8L51.7,6.5z"/>
<rect x="226.8" y="0.2" width="2.1" height="20.9"/>
<path d="M72.4,11.9l1.9,0.3c-0.1,1.2-0.7,2.3-1.6,3.2c-0.9,0.8-2,1.2-3.2,1.1c-1.4,0.1-2.8-0.5-3.8-1.6c-1-1.3-1.5-2.9-1.4-4.5
	c0-1.1,0.2-2.3,0.6-3.3c0.4-0.9,1-1.7,1.9-2.1c0.8-0.5,1.8-0.7,2.7-0.7c1.1,0,2.2,0.3,3.1,1C73.4,6,74,7,74.1,8.1l-1.9,0.3
	c-0.1-0.7-0.5-1.3-1-1.8C70.7,6.2,70.1,6,69.5,6c-0.9,0-1.8,0.4-2.4,1.1c-0.7,1-1,2.2-0.9,3.4c-0.1,1.2,0.2,2.4,0.9,3.5
	c0.6,0.7,1.4,1.1,2.3,1.1c0.7,0,1.4-0.2,1.9-0.7C72,13.6,72.3,12.8,72.4,11.9"/>
<path d="M75.6,10.3c-0.1-1.8,0.5-3.6,1.8-4.8c1-0.9,2.3-1.3,3.6-1.3c1.5-0.1,2.9,0.5,3.9,1.6c1.1,1.2,1.6,2.8,1.5,4.4
	c0.1,1.2-0.2,2.4-0.7,3.6c-0.4,0.8-1.1,1.5-1.9,2C83,16.3,82,16.6,81,16.6c-1.5,0.1-2.9-0.5-3.9-1.6C76.1,13.7,75.5,12.1,75.6,10.3
	 M77.7,10.4c-0.1,1.2,0.3,2.4,1,3.4c0.6,0.7,1.5,1.1,2.4,1.1s1.8-0.4,2.4-1.1c0.7-1,1.1-2.2,1-3.4c0.1-1.2-0.3-2.4-1-3.3
	C82.9,6.4,82,6,81.1,6s-1.8,0.4-2.4,1.1C77.9,8,77.6,9.2,77.7,10.4"/>
<path d="M88.7,16.2V4.4h1.7v1.7c0.4-0.6,0.9-1.1,1.4-1.4c0.6-0.3,1.3-0.5,2-0.5s1.5,0.2,2.1,0.5c0.5,0.4,1,0.9,1.2,1.5
	c0.7-1.3,2.1-2.1,3.6-2.1c1-0.1,1.9,0.3,2.6,1c0.7,0.8,1,1.9,0.9,3v8.1h-1.9V8.8c0-0.6,0-1.2-0.2-1.7c-0.1-0.4-0.4-0.7-0.7-0.8
	c-0.3-0.2-0.7-0.3-1.2-0.3c-0.8,0-1.5,0.3-2,0.8c-0.6,0.7-0.9,1.7-0.8,2.6v6.8h-2V8.5c0.1-0.7-0.1-1.4-0.5-2c-0.4-0.5-1-0.7-1.6-0.7
	c-0.5,0-1.1,0.2-1.5,0.5c-0.5,0.3-0.8,0.8-1,1.3c-0.2,0.8-0.3,1.6-0.3,2.5v6.1L88.7,16.2z"/>
<path d="M107.2,16.2V4.4h1.7v1.7c0.4-0.6,0.9-1.1,1.4-1.4c0.6-0.3,1.3-0.5,2-0.5s1.5,0.2,2.1,0.5c0.5,0.4,1,0.9,1.2,1.5
	c0.7-1.3,2.1-2.1,3.6-2.1c1-0.1,1.9,0.3,2.6,1c0.7,0.8,1,1.9,0.9,3v8.1h-1.9V8.8c0-0.6,0-1.2-0.2-1.7c-0.1-0.4-0.4-0.7-0.7-0.8
	c-0.3-0.2-0.7-0.3-1.2-0.3c-0.8,0-1.5,0.3-2,0.8c-0.6,0.7-0.9,1.7-0.8,2.6v6.8h-2V8.5c0.1-0.7-0.1-1.4-0.5-2c-0.4-0.5-1-0.7-1.6-0.7
	c-0.5,0-1.1,0.2-1.5,0.5c-0.5,0.3-0.8,0.8-1,1.3c-0.2,0.8-0.3,1.6-0.3,2.5v6.1L107.2,16.2z"/>
<path d="M133.2,16.2v-1.7c-0.8,1.3-2.2,2-3.6,2c-0.7,0-1.3-0.1-1.9-0.4c-0.5-0.2-1-0.6-1.3-1s-0.5-0.9-0.6-1.5s-0.1-1.2-0.1-1.9V4.4
	h1.9v6.5c0,0.7,0,1.4,0.1,2.1c0.1,0.5,0.4,0.9,0.8,1.2c0.4,0.3,1,0.5,1.5,0.5c0.6,0,1.1-0.2,1.6-0.5s0.9-0.7,1.1-1.3
	c0.2-0.7,0.4-1.5,0.3-2.3V4.3h2v11.8L133.2,16.2z"/>
<path d="M138,16.2V4.4h1.8v1.7c0.8-1.3,2.2-2,3.7-1.9c0.7,0,1.3,0.1,1.9,0.4c0.5,0.2,1,0.6,1.3,1s0.5,0.9,0.6,1.5s0.1,1.3,0.1,1.9
	v7.2h-1.9V9c0-0.6-0.1-1.2-0.2-1.8c-0.1-0.4-0.4-0.8-0.8-1c-0.4-0.2-0.9-0.4-1.4-0.4c-0.8,0-1.6,0.3-2.1,0.8c-0.7,0.9-1,2-0.9,3.1
	v6.4L138,16.2z"/>
<path d="M150.3,0h2v2.3h-2V0z M150.3,4.5h2v11.8h-2V4.5z"/>
<path d="M162.7,11.9l1.9,0.3c-0.1,1.2-0.7,2.3-1.6,3.2c-0.9,0.8-2,1.2-3.2,1.1c-1.4,0.1-2.8-0.5-3.8-1.6c-1-1.3-1.5-2.9-1.4-4.5
	c0-1.1,0.2-2.3,0.6-3.3c0.4-0.9,1-1.7,1.9-2.1c0.8-0.5,1.8-0.7,2.7-0.7c1.1,0,2.2,0.3,3.1,1c0.8,0.7,1.4,1.7,1.5,2.8l-1.9,0.3
	c-0.1-0.7-0.5-1.3-1-1.8C161,6.2,160.4,6,159.8,6c-0.9,0-1.8,0.4-2.4,1.1c-0.7,1-1,2.2-0.9,3.4c-0.1,1.2,0.2,2.4,0.9,3.5
	c0.6,0.7,1.4,1.1,2.3,1.1c0.7,0,1.4-0.2,1.9-0.7C162.3,13.6,162.6,12.8,162.7,11.9"/>
<path d="M174.2,14.8c-0.6,0.6-1.3,1-2.1,1.3c-0.7,0.3-1.4,0.4-2.1,0.4c-1,0.1-2.1-0.3-2.9-1c-0.7-0.6-1-1.5-1-2.4
	c0-1.1,0.5-2.1,1.4-2.7c0.4-0.3,0.9-0.5,1.4-0.7c0.6-0.1,1.2-0.2,1.7-0.3c1.2-0.1,2.3-0.3,3.5-0.7c0-0.3,0-0.5,0-0.5
	c0.1-0.6-0.1-1.2-0.5-1.7c-0.6-0.5-1.4-0.7-2.2-0.7c-0.7,0-1.4,0.1-2,0.5c-0.5,0.4-0.9,1.1-1,1.7l-1.9-0.3c0.1-0.7,0.4-1.4,0.9-2
	c0.4-0.6,1-1,1.7-1.2c0.8-0.3,1.7-0.4,2.6-0.4c0.8,0,1.6,0.1,2.4,0.3c0.5,0.2,1,0.5,1.4,0.9c0.3,0.4,0.5,0.9,0.6,1.4
	c0.1,0.6,0.1,1.2,0.1,1.8v2.7c0,1.2,0,2.3,0.1,3.5c0.1,0.5,0.2,1,0.5,1.4h-2C174.4,15.8,174.3,15.3,174.2,14.8 M174.1,10.3
	c-1,0.4-2.1,0.6-3.2,0.8c-0.6,0.1-1.2,0.2-1.7,0.4c-0.6,0.3-1,0.9-1,1.6c0,0.5,0.2,1,0.6,1.3c0.5,0.4,1.1,0.6,1.7,0.5
	c0.7,0,1.4-0.2,2-0.5s1-0.8,1.3-1.4c0.2-0.6,0.3-1.3,0.3-2V10.3z"/>
<path d="M182.7,14.4l0.3,1.8c-0.5,0.1-1,0.2-1.5,0.2c-0.6,0-1.1-0.1-1.6-0.3c-0.4-0.2-0.7-0.5-0.8-0.9c-0.2-0.8-0.3-1.6-0.2-2.3V6.1
	h-1.4V4.6h1.4V1.7l1.9-1.2v4.1h2v1.5h-2V13c0,0.4,0,0.7,0.1,1.1c0.1,0.2,0.2,0.3,0.3,0.4c0.2,0.1,0.4,0.2,0.7,0.1
	C182.2,14.5,182.4,14.5,182.7,14.4"/>
<path d="M185.1,0h2v2.3h-2V0z M185.1,4.5h2v11.8h-2V4.5z"/>
<path d="M189.2,10.3c-0.1-1.8,0.5-3.6,1.8-4.8c1-0.9,2.3-1.3,3.6-1.3c1.5-0.1,2.9,0.5,3.9,1.6c1.1,1.2,1.6,2.8,1.5,4.4
	c0.1,1.2-0.2,2.4-0.7,3.6c-0.4,0.8-1.1,1.5-1.9,2s-1.8,0.7-2.8,0.7c-1.5,0.1-2.9-0.5-3.9-1.6C189.6,13.6,189.1,12,189.2,10.3
	 M191.2,10.3c-0.1,1.2,0.3,2.4,1,3.4c1.1,1.3,3.1,1.5,4.5,0.4c0.1-0.1,0.3-0.2,0.4-0.4c0.7-1,1.1-2.2,1-3.4c0.1-1.2-0.3-2.4-1-3.3
	c-1.1-1.3-3.1-1.5-4.5-0.4c-0.1,0.1-0.3,0.2-0.4,0.4C191.5,7.9,191.1,9.1,191.2,10.3"/>
<path d="M202.3,16.2V4.4h1.8v1.7c0.8-1.3,2.2-2,3.7-1.9c0.7,0,1.3,0.1,1.9,0.4c0.5,0.2,1,0.6,1.3,1s0.5,0.9,0.6,1.5s0.1,1.3,0.1,1.9
	v7.2h-2V9c0-0.6,0-1.2-0.2-1.8c-0.2-0.4-0.4-0.8-0.8-1s-0.9-0.4-1.4-0.4c-0.8,0-1.6,0.3-2.1,0.8c-0.7,0.9-1,2-0.9,3.1v6.4
	L202.3,16.2z"/>
<path d="M243.2,13.7l1.5-0.1c0,0.4,0.1,0.7,0.2,1.1c0.1,0.3,0.4,0.6,0.7,0.7c0.4,0.2,0.8,0.3,1.2,0.3c0.5,0,1-0.1,1.5-0.4
	c0.3-0.2,0.5-0.5,0.5-0.9c0-0.3-0.1-0.5-0.3-0.7c-0.4-0.4-0.9-0.7-1.5-0.8c-0.5-0.2-1-0.4-1.5-0.7c-0.3-0.2-0.6-0.5-0.8-0.8
	c-0.2-0.3-0.3-0.6-0.3-1c0-0.7,0.3-1.3,0.8-1.8c0.6-0.5,1.4-0.8,2.3-0.7c0.9-0.1,1.8,0.2,2.5,0.8c0.6,0.5,0.9,1.2,0.9,2l-1.4,0.1
	c0-0.5-0.2-0.9-0.5-1.2c-0.4-0.3-0.9-0.5-1.5-0.5c-0.4,0-0.8,0.1-1.2,0.3c-0.2,0.2-0.4,0.4-0.4,0.8c0,0.3,0.1,0.5,0.4,0.7
	c0.4,0.3,0.8,0.5,1.3,0.6c0.8,0.3,1.5,0.7,2.1,1.2c0.5,0.4,0.7,1,0.7,1.6c0,0.4-0.1,0.9-0.4,1.3c-0.3,0.4-0.7,0.8-1.2,1
	c-0.6,0.3-1.2,0.4-1.9,0.4c-0.9,0-1.8-0.2-2.5-0.7C243.5,15.6,243.1,14.7,243.2,13.7"/>
<path d="M257.9,13.5l1.5,0.2c-0.3,0.9-0.8,1.8-1.6,2.4c-0.7,0.5-1.5,0.8-2.3,0.8c-0.9,0-1.7-0.3-2.3-0.9c-0.6-0.7-0.9-1.6-0.9-2.5
	c0-1,0.2-1.9,0.6-2.8c0.3-0.8,0.9-1.6,1.6-2.1s1.5-0.7,2.4-0.7c0.8,0,1.6,0.2,2.2,0.8c0.6,0.5,0.8,1.3,0.8,2.1l-1.5,0.1
	c0-0.5-0.1-0.9-0.5-1.3c-0.3-0.3-0.8-0.5-1.2-0.5c-0.6,0-1.1,0.2-1.5,0.5c-0.5,0.5-0.8,1.1-1,1.7c-0.2,0.7-0.4,1.4-0.4,2.2
	c0,0.6,0.1,1.2,0.5,1.7c0.3,0.4,0.7,0.6,1.2,0.5c0.5,0,1-0.2,1.4-0.5C257.3,14.8,257.7,14.2,257.9,13.5"/>
<path d="M260.7,16.7l1.8-8.6h1.5l-1.8,8.6H260.7z M262.8,6.5l0.4-1.7h1.5l-0.4,1.7H262.8z"/>
<path d="M271.3,13.8l1.4,0.1c-0.3,0.8-0.8,1.5-1.4,2c-0.7,0.7-1.7,1-2.6,1c-0.6,0-1.2-0.1-1.8-0.5c-0.5-0.3-1-0.7-1.2-1.3
	c-0.3-0.6-0.4-1.3-0.4-1.9c0-0.9,0.2-1.9,0.7-2.7c0.4-0.8,0.9-1.5,1.7-2c0.7-0.4,1.4-0.6,2.2-0.6c0.9,0,1.8,0.3,2.5,1
	c0.6,0.7,1,1.6,0.9,2.6c0,0.4,0,0.9-0.1,1.3h-6.4c0,0.1,0,0.3,0,0.5c0,0.7,0.1,1.3,0.5,1.8c0.3,0.4,0.8,0.6,1.4,0.6
	c0.5,0,1.1-0.2,1.5-0.5C270.7,14.9,271.1,14.4,271.3,13.8 M267.1,11.6h4.8c0-0.2,0-0.3,0-0.3c0-0.6-0.2-1.2-0.5-1.7
	C271,9.2,270.5,9,270,9c-0.6,0-1.2,0.2-1.7,0.7C267.6,10.2,267.2,10.9,267.1,11.6"/>
<path d="M274.7,16.7l1.8-8.6h1.3l-0.3,1.5c0.5-0.5,1-0.9,1.6-1.3c0.5-0.3,1-0.4,1.5-0.4c0.6,0,1.2,0.2,1.6,0.6
	c0.4,0.4,0.6,0.9,0.6,1.5c0,0.5-0.1,1-0.2,1.5l-1.1,5.2H280l1.1-5.5c0.1-0.4,0.1-0.8,0.2-1.2c0-0.3-0.1-0.5-0.3-0.7S280.5,9,280.1,9
	c-0.7,0-1.5,0.3-2,0.8c-0.7,0.8-1.2,1.7-1.3,2.8l-0.8,4L274.7,16.7z"/>
<path d="M290.5,13.5l1.5,0.2c-0.3,0.9-0.8,1.8-1.6,2.4c-0.7,0.5-1.5,0.8-2.3,0.8c-0.9,0-1.7-0.3-2.3-0.9c-0.6-0.7-0.9-1.6-0.9-2.5
	c0-1,0.2-1.9,0.6-2.8c0.3-0.8,0.9-1.6,1.6-2.1s1.5-0.7,2.4-0.7c0.8,0,1.6,0.2,2.2,0.8c0.6,0.5,0.8,1.3,0.8,2.1l-1.4,0.1
	c0-0.5-0.2-0.9-0.5-1.3c-0.3-0.3-0.8-0.5-1.2-0.5c-0.6,0-1.1,0.2-1.5,0.5c-0.5,0.5-0.8,1.1-1,1.7c-0.2,0.7-0.4,1.4-0.4,2.2
	c0,0.6,0.1,1.2,0.5,1.7c0.3,0.4,0.7,0.6,1.2,0.5c0.5,0,1-0.2,1.4-0.5C289.9,14.7,290.3,14.2,290.5,13.5"/>
<path d="M299.7,13.8l1.4,0.1c-0.3,0.8-0.8,1.5-1.4,2c-0.7,0.7-1.7,1-2.6,1c-0.6,0-1.2-0.1-1.8-0.5c-0.5-0.3-1-0.7-1.2-1.3
	c-0.3-0.6-0.4-1.3-0.4-1.9c0-0.9,0.2-1.9,0.6-2.7c0.4-0.8,0.9-1.5,1.7-2c0.7-0.4,1.5-0.6,2.3-0.6c0.9,0,1.8,0.3,2.5,1
	c0.6,0.7,1,1.6,0.9,2.6c0,0.4,0,0.9-0.1,1.3h-6.3c0,0.1,0,0.3,0,0.5c0,0.7,0.2,1.3,0.6,1.8c0.3,0.4,0.8,0.6,1.4,0.6
	c0.5,0,1-0.2,1.5-0.5C299.1,14.8,299.5,14.3,299.7,13.8 M295.4,11.6h4.8c0-0.2,0-0.3,0-0.3c0-0.6-0.2-1.2-0.5-1.7
	c-0.4-0.4-0.9-0.6-1.4-0.6c-0.6,0-1.2,0.2-1.7,0.7C296,10.2,295.6,10.9,295.4,11.6"/>
<path d="M307.2,16.7l2.5-11.9h1.5l-0.9,4.3c0.4-0.4,0.8-0.7,1.3-0.9c0.4-0.2,0.8-0.3,1.2-0.3c0.8,0,1.5,0.3,2,0.9
	c0.6,0.7,0.9,1.7,0.8,2.6c0,0.7-0.1,1.4-0.3,2.1c-0.2,0.6-0.5,1.1-0.8,1.6c-0.3,0.4-0.6,0.7-1,1c-0.3,0.2-0.7,0.4-1,0.6
	c-0.3,0.1-0.7,0.2-1,0.2c-0.5,0-1.1-0.1-1.5-0.5c-0.5-0.3-0.8-0.8-1-1.4l-0.4,1.6L307.2,16.7z M309.4,13.1v0.3
	c0,0.6,0.1,1.2,0.5,1.7c0.3,0.4,0.8,0.6,1.3,0.6s1-0.2,1.4-0.5c0.5-0.5,0.9-1,1.1-1.7c0.3-0.7,0.4-1.4,0.4-2.1
	c0-0.6-0.1-1.2-0.5-1.7c-0.3-0.4-0.8-0.6-1.3-0.6s-1.1,0.2-1.5,0.6c-0.5,0.5-0.9,1.2-1.1,1.9C309.5,12.1,309.4,12.6,309.4,13.1"/>
<path d="M322.8,15.6c-0.4,0.4-0.9,0.7-1.5,1c-0.5,0.2-1,0.3-1.5,0.3c-0.7,0-1.4-0.2-1.9-0.7s-0.8-1.1-0.7-1.8c0-0.4,0.1-0.9,0.3-1.3
	c0.2-0.4,0.5-0.7,0.9-0.9c0.4-0.2,0.9-0.4,1.3-0.5c0.6-0.1,1.3-0.1,1.9-0.2c0.7,0,1.4-0.1,2-0.3c0.1-0.3,0.2-0.7,0.2-1
	s-0.1-0.6-0.4-0.8c-0.4-0.3-1-0.4-1.5-0.4s-1.1,0.1-1.5,0.4c-0.4,0.3-0.7,0.7-0.9,1.2l-1.5-0.1c0.3-0.8,0.8-1.5,1.4-2
	c0.7-0.5,1.6-0.7,2.5-0.7c0.9-0.1,1.8,0.2,2.5,0.8c0.5,0.3,0.7,0.9,0.7,1.5c0,0.5-0.1,1.1-0.2,1.6l-0.5,2.1
	c-0.1,0.5-0.2,1.1-0.2,1.7c0,0.4,0.1,0.8,0.2,1.2h-1.5C322.9,16.3,322.8,16,322.8,15.6 M323.3,12.3c-0.2,0.1-0.4,0.1-0.7,0.2
	c-0.2,0-0.6,0.1-1.2,0.1c-0.6,0-1.2,0.1-1.8,0.3c-0.3,0.1-0.6,0.3-0.8,0.5s-0.3,0.5-0.3,0.8c0,0.4,0.2,0.7,0.4,1
	c0.3,0.3,0.8,0.4,1.2,0.4c0.5,0,1-0.1,1.4-0.4c0.4-0.3,0.8-0.6,1.1-1.1C323,13.6,323.2,13,323.3,12.3"/>
<path d="M326.9,13.7l1.5-0.1c0,0.4,0.1,0.7,0.2,1.1c0.1,0.3,0.4,0.6,0.7,0.7c0.4,0.2,0.8,0.3,1.2,0.3c0.5,0,1-0.1,1.5-0.4
	c0.3-0.2,0.5-0.5,0.5-0.9c0-0.3-0.1-0.5-0.3-0.7c-0.4-0.4-0.9-0.7-1.5-0.8c-0.5-0.2-1-0.4-1.5-0.7c-0.3-0.2-0.6-0.5-0.8-0.8
	c-0.2-0.3-0.3-0.6-0.3-1c0-0.7,0.3-1.3,0.8-1.8c0.6-0.5,1.4-0.8,2.3-0.7c0.9-0.1,1.8,0.2,2.5,0.8c0.6,0.5,0.9,1.2,0.9,2l-1.4,0.1
	c0-0.5-0.2-0.9-0.5-1.2c-0.4-0.3-0.9-0.5-1.5-0.5c-0.4,0-0.8,0.1-1.2,0.3c-0.2,0.2-0.4,0.4-0.4,0.8c0,0.3,0.2,0.5,0.4,0.7
	c0.4,0.3,0.8,0.5,1.3,0.6c0.8,0.3,1.5,0.7,2.1,1.2c0.5,0.4,0.7,1,0.7,1.6c0,0.4-0.1,0.9-0.4,1.3c-0.3,0.4-0.7,0.8-1.2,1
	c-0.6,0.3-1.3,0.4-1.9,0.4c-0.9,0-1.8-0.2-2.5-0.7C327.1,15.6,326.7,14.7,326.9,13.7"/>
<path d="M341.9,13.8l1.4,0.1c-0.3,0.8-0.8,1.5-1.4,2c-0.7,0.7-1.7,1-2.6,1c-0.6,0-1.2-0.1-1.8-0.5c-0.5-0.3-0.9-0.7-1.2-1.3
	c-0.3-0.6-0.4-1.3-0.4-1.9c0-0.9,0.2-1.9,0.6-2.7c0.4-0.8,0.9-1.5,1.7-2c0.7-0.4,1.5-0.6,2.3-0.6c0.9,0,1.8,0.3,2.5,1
	c0.6,0.7,1,1.6,0.9,2.6c0,0.4,0,0.9-0.1,1.3h-6.3c0,0.1,0,0.3,0,0.5c0,0.7,0.2,1.3,0.6,1.8c0.3,0.4,0.8,0.6,1.4,0.6
	c0.5,0,1-0.2,1.5-0.5C341.3,14.9,341.7,14.4,341.9,13.8 M337.7,11.7h4.8v-0.3c0-0.6-0.2-1.2-0.5-1.7c-0.4-0.4-0.9-0.6-1.4-0.6
	c-0.6,0-1.2,0.2-1.7,0.7C338.2,10.2,337.8,10.9,337.7,11.7"/>
<path d="M351.1,15.4c-0.6,0.9-1.6,1.4-2.6,1.5c-0.8,0-1.5-0.3-2-0.9c-0.6-0.7-0.9-1.7-0.8-2.6c0-1,0.2-2,0.6-2.9
	c0.4-0.8,0.9-1.4,1.6-1.9c0.6-0.4,1.2-0.6,1.9-0.7c1,0,2,0.6,2.4,1.5l1-4.6h1.5l-2.5,11.9h-1.4L351.1,15.4z M347.1,13.1
	c0,0.5,0,1,0.2,1.4c0.1,0.3,0.3,0.6,0.6,0.9c0.3,0.2,0.6,0.3,1,0.3c0.7,0,1.4-0.4,1.8-1c0.7-1,1.1-2.2,1.1-3.4
	c0-0.6-0.2-1.2-0.5-1.6c-0.3-0.4-0.8-0.6-1.4-0.6c-0.3,0-0.7,0.1-1,0.2c-0.3,0.2-0.6,0.5-0.9,0.8c-0.3,0.4-0.6,0.9-0.7,1.4
	C347.2,12.1,347.1,12.6,347.1,13.1"/>
<path d="M359.4,16.7l1.6-7.5h-1.3l0.2-1.1h1.3l0.3-1.2c0.1-0.5,0.2-0.9,0.4-1.3c0.2-0.3,0.4-0.5,0.7-0.7c0.4-0.2,0.8-0.3,1.3-0.3
	s1.1,0.1,1.6,0.2l-0.3,1.3c-0.4-0.1-0.8-0.2-1.3-0.2c-0.2,0-0.5,0.1-0.7,0.2c-0.2,0.3-0.3,0.6-0.4,1L362.6,8h1.6L364,9.1h-1.6
	l-1.6,7.5L359.4,16.7z"/>
<path d="M364.3,16.7l1.8-8.6h1.5l-1.8,8.6H364.3z M366.4,6.5l0.4-1.7h1.5l-0.4,1.7H366.4z"/>
<path d="M374,13.5l1.5,0.2c-0.3,0.9-0.8,1.8-1.6,2.4c-0.7,0.5-1.5,0.8-2.3,0.8c-0.9,0-1.7-0.3-2.3-0.9c-0.6-0.7-0.9-1.6-0.9-2.5
	c0-1,0.2-1.9,0.6-2.8c0.3-0.8,0.9-1.6,1.6-2.1s1.5-0.7,2.4-0.7c0.8,0,1.6,0.2,2.2,0.8c0.6,0.5,0.8,1.3,0.8,2.1l-1.5,0.1
	c0-0.5-0.1-0.9-0.5-1.3c-0.3-0.3-0.8-0.5-1.2-0.5c-0.6,0-1.1,0.2-1.5,0.5c-0.5,0.5-0.8,1.1-1,1.7c-0.2,0.7-0.4,1.4-0.4,2.2
	c0,0.6,0.1,1.2,0.5,1.7c0.3,0.4,0.7,0.6,1.2,0.5c0.5,0,1-0.2,1.4-0.5C373.5,14.7,373.8,14.2,374,13.5"/>
<path d="M380.3,15.5l-0.2,1.2c-0.3,0.1-0.7,0.1-1,0.1c-0.5,0-1-0.1-1.4-0.4c-0.3-0.2-0.4-0.5-0.4-0.9s0.1-0.9,0.2-1.3l1-5h-1.2
	l0.2-1.1h1.2l0.5-2.1l1.7-1l-0.7,3.1h1.4l-0.2,1.1H380l-1,4.8c-0.1,0.4-0.2,0.7-0.2,1.1c0,0.1,0,0.3,0.1,0.4
	c0.1,0.1,0.3,0.2,0.5,0.1C379.7,15.6,380,15.6,380.3,15.5"/>
<path d="M381.9,16.7l1.8-8.6h1.5l-1.8,8.6H381.9z M384.1,6.5l0.3-1.7h1.5l-0.3,1.7H384.1z"/>
<path d="M386.5,13.4c-0.1-1.5,0.5-3,1.5-4.2c0.8-0.9,2-1.4,3.2-1.4c0.9,0,1.8,0.3,2.5,1s1,1.7,1,2.6c0,1-0.2,1.9-0.6,2.8
	c-0.4,0.8-1,1.5-1.7,2c-0.7,0.4-1.5,0.7-2.3,0.7c-0.6,0-1.3-0.1-1.8-0.4c-0.5-0.3-1-0.7-1.3-1.2C386.6,14.7,386.5,14.1,386.5,13.4
	 M387.9,13.3c-0.1,0.7,0.2,1.3,0.6,1.8c0.4,0.4,0.9,0.6,1.5,0.6c0.3,0,0.6-0.1,0.9-0.2c0.3-0.1,0.6-0.3,0.9-0.6s0.5-0.6,0.7-0.9
	c0.2-0.3,0.3-0.7,0.5-1.1c0.2-0.5,0.3-1,0.3-1.5c0-0.7-0.2-1.3-0.6-1.8c-0.4-0.4-0.9-0.7-1.5-0.7c-0.4,0-0.9,0.1-1.3,0.3
	c-0.4,0.3-0.7,0.6-1,1s-0.5,0.9-0.7,1.5C388.1,12.4,388,12.9,387.9,13.3"/>
<path d="M396,16.7l1.8-8.6h1.3l-0.3,1.5c0.5-0.5,1-0.9,1.6-1.3c0.5-0.3,1-0.4,1.5-0.4c0.6,0,1.2,0.2,1.6,0.6
	c0.4,0.4,0.6,0.9,0.6,1.5c0,0.5-0.1,1-0.2,1.5l-1.1,5.2h-1.5l1.1-5.5c0.1-0.4,0.1-0.8,0.2-1.2c0-0.3-0.1-0.5-0.3-0.7
	c-0.2-0.2-0.6-0.3-0.9-0.3c-0.7,0-1.5,0.3-2,0.8c-0.7,0.8-1.2,1.7-1.3,2.8l-0.8,4L396,16.7z"/>
</svg>
